<?xml version="1.0" encoding="UTF-8"?>
<svg version="1.1" xmlns="http://www.w3.org/2000/svg" width="598" height="92">
<path d="M0 0 C11.56452793 7.19832861 18.39853157 16.42791703 21.609375 29.6796875 C22.84113142 43.60139955 20.38148778 54.54585204 11.609375 65.6796875 C7.03563727 71.13299018 2.04821903 74.68513142 -4.390625 77.6796875 C-5.05449219 78.00066406 -5.71835937 78.32164063 -6.40234375 78.65234375 C-15.19256278 82.25214773 -26.49030609 82.04160038 -35.390625 78.9921875 C-43.9715135 75.31099916 -50.01393887 70.46052979 -56.390625 63.6796875 C-57.050625 63.0196875 -57.710625 62.3596875 -58.390625 61.6796875 C-59.29613063 59.74455709 -60.14341971 57.78181862 -60.953125 55.8046875 C-61.38753906 54.75539062 -61.82195313 53.70609375 -62.26953125 52.625 C-66.15645612 42.41335767 -65.56023398 30.41049394 -61.6484375 20.2890625 C-59.70604636 16.25950573 -57.37949671 12.99373738 -54.390625 9.6796875 C-53.7925 8.99003906 -53.194375 8.30039062 -52.578125 7.58984375 C-38.90567091 -7.21279304 -17.28815008 -9.5480306 0 0 Z M-24.390625 -2.3203125 C-24.390625 -0.3403125 -24.390625 1.6396875 -24.390625 3.6796875 C-24.060625 3.6796875 -23.730625 3.6796875 -23.390625 3.6796875 C-23.060625 1.6996875 -22.730625 -0.2803125 -22.390625 -2.3203125 C-23.050625 -2.3203125 -23.710625 -2.3203125 -24.390625 -2.3203125 Z M-20.390625 -2.3203125 C-19.390625 0.6796875 -19.390625 0.6796875 -19.390625 0.6796875 Z M-16.390625 -2.3203125 C-16.720625 -0.3403125 -17.050625 1.6396875 -17.390625 3.6796875 C-16.730625 3.0196875 -16.070625 2.3596875 -15.390625 1.6796875 C-15.390625 0.6896875 -15.390625 -0.3003125 -15.390625 -1.3203125 C-14.730625 -1.6503125 -14.070625 -1.9803125 -13.390625 -2.3203125 C-14.380625 -2.3203125 -15.370625 -2.3203125 -16.390625 -2.3203125 Z M-29.390625 -2.3203125 C-30.380625 -1.8253125 -30.380625 -1.8253125 -31.390625 -1.3203125 C-31.060625 -0.3303125 -30.730625 0.6596875 -30.390625 1.6796875 C-30.390625 1.0196875 -30.390625 0.3596875 -30.390625 -0.3203125 C-29.400625 -0.6503125 -28.410625 -0.9803125 -27.390625 -1.3203125 C-28.050625 -1.6503125 -28.710625 -1.9803125 -29.390625 -2.3203125 Z M-22.390625 -1.3203125 C-21.390625 0.6796875 -21.390625 0.6796875 -21.390625 0.6796875 Z M-12.390625 -1.3203125 C-12.720625 -0.0003125 -13.050625 1.3196875 -13.390625 2.6796875 C-12.730625 2.3496875 -12.070625 2.0196875 -11.390625 1.6796875 C-11.720625 0.6896875 -12.050625 -0.3003125 -12.390625 -1.3203125 Z M-36.390625 -0.3203125 C-35.400625 0.9996875 -34.410625 2.3196875 -33.390625 3.6796875 C-33.720625 2.3596875 -34.050625 1.0396875 -34.390625 -0.3203125 C-35.050625 -0.3203125 -35.710625 -0.3203125 -36.390625 -0.3203125 Z M-27.390625 -0.3203125 C-26.390625 1.6796875 -26.390625 1.6796875 -26.390625 1.6796875 Z M-8.390625 -0.3203125 C-8.060625 0.3396875 -7.730625 0.9996875 -7.390625 1.6796875 C-7.060625 1.0196875 -6.730625 0.3596875 -6.390625 -0.3203125 C-7.050625 -0.3203125 -7.710625 -0.3203125 -8.390625 -0.3203125 Z M-38.390625 0.6796875 C-38.390625 1.6696875 -38.390625 2.6596875 -38.390625 3.6796875 C-37.730625 3.3496875 -37.070625 3.0196875 -36.390625 2.6796875 C-36.390625 2.0196875 -36.390625 1.3596875 -36.390625 0.6796875 C-37.050625 0.6796875 -37.710625 0.6796875 -38.390625 0.6796875 Z M-20.390625 1.6796875 C-19.390625 3.6796875 -19.390625 3.6796875 -19.390625 3.6796875 Z M-9.390625 1.6796875 C-9.720625 2.3396875 -10.050625 2.9996875 -10.390625 3.6796875 C-9.730625 3.6796875 -9.070625 3.6796875 -8.390625 3.6796875 C-8.720625 3.0196875 -9.050625 2.3596875 -9.390625 1.6796875 Z M-6.390625 1.6796875 C-5.390625 3.6796875 -5.390625 3.6796875 -5.390625 3.6796875 Z M-31.390625 2.6796875 C-31.390625 3.3396875 -31.390625 3.9996875 -31.390625 4.6796875 C-30.730625 4.6796875 -30.070625 4.6796875 -29.390625 4.6796875 C-29.390625 4.0196875 -29.390625 3.3596875 -29.390625 2.6796875 C-30.050625 2.6796875 -30.710625 2.6796875 -31.390625 2.6796875 Z M-8.390625 3.6796875 C-8.060625 4.6696875 -7.730625 5.6596875 -7.390625 6.6796875 C-6.730625 6.6796875 -6.070625 6.6796875 -5.390625 6.6796875 C-5.720625 5.6896875 -6.050625 4.6996875 -6.390625 3.6796875 C-7.050625 3.6796875 -7.710625 3.6796875 -8.390625 3.6796875 Z M-37.390625 4.6796875 C-36.730625 5.3396875 -36.070625 5.9996875 -35.390625 6.6796875 C-35.390625 6.0196875 -35.390625 5.3596875 -35.390625 4.6796875 C-36.050625 4.6796875 -36.710625 4.6796875 -37.390625 4.6796875 Z M-48.203125 18.9296875 C-53.37717583 26.88304267 -54.53343468 35.9978543 -52.95703125 45.21484375 C-50.84583239 53.69897829 -45.70981704 60.9217433 -38.328125 65.68359375 C-29.68933753 70.12490586 -20.70299813 70.95003846 -11.328125 68.6171875 C-3.32414438 65.93660908 3.72696104 60.23136328 7.609375 52.6796875 C11.29712463 43.8410325 12.07643325 34.94093155 8.64453125 25.90625 C4.80854312 17.65525667 -0.29880068 11.31614917 -8.7734375 7.6484375 C-23.31674252 2.72468533 -38.52935742 6.72983224 -48.203125 18.9296875 Z M-47.390625 60.6796875 C-47.390625 61.6696875 -47.390625 62.6596875 -47.390625 63.6796875 C-46.400625 63.3496875 -45.410625 63.0196875 -44.390625 62.6796875 C-45.380625 62.0196875 -46.370625 61.3596875 -47.390625 60.6796875 Z M2.609375 61.6796875 C4.259375 63.3296875 5.909375 64.9796875 7.609375 66.6796875 C7.279375 65.3596875 6.949375 64.0396875 6.609375 62.6796875 C5.289375 62.3496875 3.969375 62.0196875 2.609375 61.6796875 Z M1.609375 62.6796875 C1.279375 63.3396875 0.949375 63.9996875 0.609375 64.6796875 C1.269375 64.6796875 1.929375 64.6796875 2.609375 64.6796875 C2.279375 64.0196875 1.949375 63.3596875 1.609375 62.6796875 Z M-49.390625 64.6796875 C-49.720625 65.3396875 -50.050625 65.9996875 -50.390625 66.6796875 C-49.730625 66.6796875 -49.070625 66.6796875 -48.390625 66.6796875 C-48.720625 66.0196875 -49.050625 65.3596875 -49.390625 64.6796875 Z M-2.390625 65.6796875 C-1.730625 66.3396875 -1.070625 66.9996875 -0.390625 67.6796875 C-0.390625 67.0196875 -0.390625 66.3596875 -0.390625 65.6796875 C-1.050625 65.6796875 -1.710625 65.6796875 -2.390625 65.6796875 Z M-40.390625 66.6796875 C-39.390625 68.6796875 -39.390625 68.6796875 -39.390625 68.6796875 Z M4.609375 66.6796875 C4.939375 67.3396875 5.269375 67.9996875 5.609375 68.6796875 C5.939375 68.0196875 6.269375 67.3596875 6.609375 66.6796875 C5.949375 66.6796875 5.289375 66.6796875 4.609375 66.6796875 Z M-0.390625 67.6796875 C-0.390625 68.9996875 -0.390625 70.3196875 -0.390625 71.6796875 C0.599375 71.3496875 1.589375 71.0196875 2.609375 70.6796875 C2.279375 69.6896875 1.949375 68.6996875 1.609375 67.6796875 C0.949375 67.6796875 0.289375 67.6796875 -0.390625 67.6796875 Z M-7.390625 68.6796875 C-6.390625 70.6796875 -6.390625 70.6796875 -6.390625 70.6796875 Z M-42.390625 69.6796875 C-42.720625 70.6696875 -43.050625 71.6596875 -43.390625 72.6796875 C-42.400625 72.3496875 -41.410625 72.0196875 -40.390625 71.6796875 C-41.050625 71.0196875 -41.710625 70.3596875 -42.390625 69.6796875 Z M-38.390625 70.6796875 C-38.060625 71.3396875 -37.730625 71.9996875 -37.390625 72.6796875 C-36.730625 72.3496875 -36.070625 72.0196875 -35.390625 71.6796875 C-36.380625 71.3496875 -37.370625 71.0196875 -38.390625 70.6796875 Z M-31.390625 70.6796875 C-31.390625 73.6796875 -31.390625 73.6796875 -31.390625 73.6796875 Z M-11.390625 70.6796875 C-10.400625 72.1646875 -10.400625 72.1646875 -9.390625 73.6796875 C-8.730625 73.0196875 -8.070625 72.3596875 -7.390625 71.6796875 C-8.710625 71.3496875 -10.030625 71.0196875 -11.390625 70.6796875 Z M-6.390625 70.6796875 C-5.390625 72.6796875 -5.390625 72.6796875 -5.390625 72.6796875 Z M-3.390625 70.6796875 C-3.060625 71.3396875 -2.730625 71.9996875 -2.390625 72.6796875 C-1.730625 72.3496875 -1.070625 72.0196875 -0.390625 71.6796875 C-1.380625 71.3496875 -2.370625 71.0196875 -3.390625 70.6796875 Z M-25.390625 71.6796875 C-25.390625 73.6596875 -25.390625 75.6396875 -25.390625 77.6796875 C-24.400625 78.1746875 -24.400625 78.1746875 -23.390625 78.6796875 C-23.390625 78.0196875 -23.390625 77.3596875 -23.390625 76.6796875 C-22.730625 76.6796875 -22.070625 76.6796875 -21.390625 76.6796875 C-21.390625 77.3396875 -21.390625 77.9996875 -21.390625 78.6796875 C-20.730625 78.6796875 -20.070625 78.6796875 -19.390625 78.6796875 C-19.390625 76.3696875 -19.390625 74.0596875 -19.390625 71.6796875 C-19.720625 72.9996875 -20.050625 74.3196875 -20.390625 75.6796875 C-21.710625 75.6796875 -23.030625 75.6796875 -24.390625 75.6796875 C-24.720625 74.3596875 -25.050625 73.0396875 -25.390625 71.6796875 Z M-17.390625 71.6796875 C-17.390625 73.3296875 -17.390625 74.9796875 -17.390625 76.6796875 C-14.915625 77.1746875 -14.915625 77.1746875 -12.390625 77.6796875 C-11.14516095 75.18875939 -11.6138672 74.26888017 -12.390625 71.6796875 C-14.040625 71.6796875 -15.690625 71.6796875 -17.390625 71.6796875 Z M-39.390625 72.6796875 C-39.390625 73.3396875 -39.390625 73.9996875 -39.390625 74.6796875 C-38.730625 74.6796875 -38.070625 74.6796875 -37.390625 74.6796875 C-37.390625 74.0196875 -37.390625 73.3596875 -37.390625 72.6796875 C-38.050625 72.6796875 -38.710625 72.6796875 -39.390625 72.6796875 Z M-5.390625 72.6796875 C-4.390625 74.6796875 -4.390625 74.6796875 -4.390625 74.6796875 Z M-9.390625 73.6796875 C-8.390625 76.6796875 -8.390625 76.6796875 -8.390625 76.6796875 Z M-32.390625 74.6796875 C-32.720625 75.3396875 -33.050625 75.9996875 -33.390625 76.6796875 C-32.730625 76.6796875 -32.070625 76.6796875 -31.390625 76.6796875 C-31.720625 76.0196875 -32.050625 75.3596875 -32.390625 74.6796875 Z M-29.390625 74.6796875 C-29.060625 75.6696875 -28.730625 76.6596875 -28.390625 77.6796875 C-28.060625 76.6896875 -27.730625 75.6996875 -27.390625 74.6796875 C-28.050625 74.6796875 -28.710625 74.6796875 -29.390625 74.6796875 Z " fill="#010101" transform="translate(67.390625,8.3203125)"/>
<path d="M0 0 C2.97 0 5.94 0 9 0 C9.33 9.24 9.66 18.48 10 28 C10.99 28 11.98 28 13 28 C13.33 27.34 13.66 26.68 14 26 C14.66 26 15.32 26 16 26 C16 17.42 16 8.84 16 0 C18.97 0 21.94 0 25 0 C25.33 9.24 25.66 18.48 26 28 C27.32 28 28.64 28 30 28 C30.33 18.76 30.66 9.52 31 0 C33.97 0 36.94 0 40 0 C40.07419134 4.21749219 40.1286204 8.43463811 40.16479492 12.65258789 C40.17987589 14.08722552 40.2003438 15.52181708 40.22631836 16.95629883 C40.26273437 19.01915859 40.27973243 21.08140858 40.29296875 23.14453125 C40.3086792 24.38565674 40.32438965 25.62678223 40.34057617 26.90551758 C40 30 40 30 38.60668945 31.9284668 C37 33 37 33 35 33 C34.67 33.99 34.34 34.98 34 36 C33.34 36 32.68 36 32 36 C31.67 36.99 31.34 37.98 31 39 C29.02 39 27.04 39 25 39 C24.67 38.01 24.34 37.02 24 36 C22.25007285 34.89453631 22.25007285 34.89453631 20 35 C19.236875 35.66 18.47375 36.32 17.6875 37 C15 39 15 39 11.1875 38.75 C10.135625 38.5025 9.08375 38.255 8 38 C8 37.34 8 36.68 8 36 C7.01 35.67 6.02 35.34 5 35 C5 34.34 5 33.68 5 33 C4.01 32.67 3.02 32.34 2 32 C2 31.34 2 30.68 2 30 C1.34 30 0.68 30 0 30 C0 20.1 0 10.2 0 0 Z " fill="#000000" transform="translate(398,26)"/>
<path d="M0 0 C3.63 0 7.26 0 11 0 C11.33 1.32 11.66 2.64 12 4 C12.66 4 13.32 4 14 4 C14.33 5.98 14.66 7.96 15 10 C15.66 10 16.32 10 17 10 C17.33 12.31 17.66 14.62 18 17 C18.66 17 19.32 17 20 17 C20 17.99 20 18.98 20 20 C20.66 20 21.32 20 22 20 C22 13.4 22 6.8 22 0 C24.97 0 27.94 0 31 0 C31 12.87 31 25.74 31 39 C21 39 21 39 19 38 C18.375 34.9375 18.375 34.9375 18 32 C17.34 32 16.68 32 16 32 C13 25.375 13 25.375 13 22 C12.34 22 11.68 22 11 22 C10.67 21.01 10.34 20.02 10 19 C9.67 25.6 9.34 32.2 9 39 C6.03 39 3.06 39 0 39 C0 26.13 0 13.26 0 0 Z " fill="#000000" transform="translate(162,26)"/>
<path d="M0 0 C10 0 10 0 12 1 C12 1.99 12 2.98 12 4 C12.66 4 13.32 4 14 4 C14.67305018 5.60149886 15.33822227 7.20631029 16 8.8125 C16.37125 9.70582031 16.7425 10.59914063 17.125 11.51953125 C18 14 18 14 18 17 C18.66 17 19.32 17 20 17 C20.33 17.99 20.66 18.98 21 20 C21.33 13.4 21.66 6.8 22 0 C24.97 0 27.94 0 31 0 C31 12.87 31 25.74 31 39 C21 39 21 39 19 38 C19 37.01 19 36.02 19 35 C18.34 35 17.68 35 17 35 C16.32694982 33.39850114 15.66177773 31.79368971 15 30.1875 C14.62875 29.29417969 14.2575 28.40085937 13.875 27.48046875 C13 25 13 25 13 22 C12.34 22 11.68 22 11 22 C10.67 21.01 10.34 20.02 10 19 C9.67 25.6 9.34 32.2 9 39 C6.03 39 3.06 39 0 39 C0 26.13 0 13.26 0 0 Z " fill="#000000" transform="translate(476,26)"/>
<path d="M0 0 C3.238125 -0.020625 6.47625 -0.04125 9.8125 -0.0625 C10.82932861 -0.071604 11.84615723 -0.08070801 12.89379883 -0.09008789 C13.69841553 -0.09258545 14.50303223 -0.09508301 15.33203125 -0.09765625 C16.56530151 -0.10551147 16.56530151 -0.10551147 17.82348633 -0.11352539 C20 0 20 0 23 1 C23 1.66 23 2.32 23 3 C23.66 3 24.32 3 25 3 C26.08649093 6.25947278 26.12928509 8.66510975 26.1328125 12.09375 C26.13474609 13.88619141 26.13474609 13.88619141 26.13671875 15.71484375 C26.13285156 16.96394531 26.12898438 18.21304688 26.125 19.5 C26.13080078 21.37365234 26.13080078 21.37365234 26.13671875 23.28515625 C26.13542969 24.48011719 26.13414062 25.67507812 26.1328125 26.90625 C26.13168457 28.00259766 26.13055664 29.09894531 26.12939453 30.22851562 C26 33 26 33 25 36 C24.34 36 23.68 36 23 36 C23 36.66 23 37.32 23 38 C20.11734851 38.96088383 18.32337729 39.11670941 15.33203125 39.09765625 C14.52741455 39.09515869 13.72279785 39.09266113 12.89379883 39.09008789 C11.36855591 39.07643188 11.36855591 39.07643188 9.8125 39.0625 C4.9553125 39.0315625 4.9553125 39.0315625 0 39 C0 26.13 0 13.26 0 0 Z M9 8 C9 15.59 9 23.18 9 31 C11.31 31 13.62 31 16 31 C17.16171778 28.67656444 17.12903969 27.30366684 17.1328125 24.71875 C17.13410156 23.87699219 17.13539063 23.03523438 17.13671875 22.16796875 C17.13285156 21.28753906 17.12898438 20.40710937 17.125 19.5 C17.12886719 18.61957031 17.13273437 17.73914062 17.13671875 16.83203125 C17.13542969 15.99027344 17.13414062 15.14851563 17.1328125 14.28125 C17.13168457 13.50845703 17.13055664 12.73566406 17.12939453 11.93945312 C17.12007086 9.91790801 17.12007086 9.91790801 16 8 C13.69 8 11.38 8 9 8 Z " fill="#000000" transform="translate(198,26)"/>
<path d="M0 0 C0.67224609 -0.00386719 1.34449219 -0.00773437 2.03710938 -0.01171875 C5.11249752 -0.00561073 7.49776313 0.14508771 10.4375 1.125 C10.7675 2.775 11.0975 4.425 11.4375 6.125 C12.0975 6.125 12.7575 6.125 13.4375 6.125 C13.4375 15.035 13.4375 23.945 13.4375 33.125 C12.7775 33.125 12.1175 33.125 11.4375 33.125 C11.1075 34.775 10.7775 36.425 10.4375 38.125 C6.89615331 39.3054489 3.68304786 39.27118724 0 39.25 C-1.31871094 39.25257812 -2.63742187 39.25515625 -3.99609375 39.2578125 C-6.76488454 39.1547031 -8.95327114 38.96582567 -11.5625 38.125 C-11.8925 36.475 -12.2225 34.825 -12.5625 33.125 C-13.2225 33.125 -13.8825 33.125 -14.5625 33.125 C-14.5625 24.215 -14.5625 15.305 -14.5625 6.125 C-13.9025 6.125 -13.2425 6.125 -12.5625 6.125 C-12.2325 4.475 -11.9025 2.825 -11.5625 1.125 C-7.72413211 -0.11191651 -4.00652655 -0.0078329 0 0 Z M-3.5625 8.125 C-3.5625 8.785 -3.5625 9.445 -3.5625 10.125 C-4.2225 10.125 -4.8825 10.125 -5.5625 10.125 C-5.5625 16.395 -5.5625 22.665 -5.5625 29.125 C-4.9025 29.125 -4.2425 29.125 -3.5625 29.125 C-3.5625 29.785 -3.5625 30.445 -3.5625 31.125 C-1.2525 31.125 1.0575 31.125 3.4375 31.125 C4.59921778 28.80156444 4.56653969 27.42866684 4.5703125 24.84375 C4.57160156 24.00199219 4.57289063 23.16023438 4.57421875 22.29296875 C4.57035156 21.41253906 4.56648437 20.53210937 4.5625 19.625 C4.56636719 18.74457031 4.57023438 17.86414062 4.57421875 16.95703125 C4.57292969 16.11527344 4.57164062 15.27351563 4.5703125 14.40625 C4.56918457 13.63345703 4.56805664 12.86066406 4.56689453 12.06445312 C4.55757086 10.04290801 4.55757086 10.04290801 3.4375 8.125 C1.1275 8.125 -1.1825 8.125 -3.5625 8.125 Z " fill="#000000" transform="translate(557.5625,25.875)"/>
<path d="M0 0 C3.238125 -0.020625 6.47625 -0.04125 9.8125 -0.0625 C10.82932861 -0.071604 11.84615723 -0.08070801 12.89379883 -0.09008789 C13.69841553 -0.09258545 14.50303223 -0.09508301 15.33203125 -0.09765625 C16.56530151 -0.10551147 16.56530151 -0.10551147 17.82348633 -0.11352539 C20 0 20 0 23 1 C23.33 2.65 23.66 4.3 24 6 C24.66 6 25.32 6 26 6 C26 14.91 26 23.82 26 33 C25.34 33 24.68 33 24 33 C23.67 34.65 23.34 36.3 23 38 C20.11734851 38.96088383 18.32337729 39.11670941 15.33203125 39.09765625 C14.52741455 39.09515869 13.72279785 39.09266113 12.89379883 39.09008789 C11.36855591 39.07643188 11.36855591 39.07643188 9.8125 39.0625 C4.9553125 39.0315625 4.9553125 39.0315625 0 39 C0 26.13 0 13.26 0 0 Z M9 8 C9 15.59 9 23.18 9 31 C11.31 31 13.62 31 16 31 C17.16171778 28.67656444 17.12903969 27.30366684 17.1328125 24.71875 C17.13410156 23.87699219 17.13539063 23.03523438 17.13671875 22.16796875 C17.13285156 21.28753906 17.12898437 20.40710937 17.125 19.5 C17.12886719 18.61957031 17.13273438 17.73914062 17.13671875 16.83203125 C17.13542969 15.99027344 17.13414062 15.14851563 17.1328125 14.28125 C17.13168457 13.50845703 17.13055664 12.73566406 17.12939453 11.93945312 C17.12007086 9.91790801 17.12007086 9.91790801 16 8 C13.69 8 11.38 8 9 8 Z " fill="#000000" transform="translate(512,26)"/>
<path d="M0 0 C0.67675781 -0.00386719 1.35351562 -0.00773437 2.05078125 -0.01171875 C5.14073767 -0.00562416 7.54679311 0.1405977 10.5 1.125 C10.83 2.775 11.16 4.425 11.5 6.125 C12.16 6.125 12.82 6.125 13.5 6.125 C13.5 15.035 13.5 23.945 13.5 33.125 C12.84 33.125 12.18 33.125 11.5 33.125 C11.17 34.775 10.84 36.425 10.5 38.125 C6.94086771 39.31137743 3.701855 39.27115346 0 39.25 C-0.67675781 39.25386719 -1.35351562 39.25773437 -2.05078125 39.26171875 C-5.14073767 39.25562416 -7.54679311 39.1094023 -10.5 38.125 C-10.5 37.465 -10.5 36.805 -10.5 36.125 C-11.16 36.125 -11.82 36.125 -12.5 36.125 C-12.5 35.135 -12.5 34.145 -12.5 33.125 C-13.16 33.125 -13.82 33.125 -14.5 33.125 C-14.5 24.215 -14.5 15.305 -14.5 6.125 C-13.84 6.125 -13.18 6.125 -12.5 6.125 C-12.5 5.135 -12.5 4.145 -12.5 3.125 C-11.84 3.125 -11.18 3.125 -10.5 3.125 C-10.5 2.465 -10.5 1.805 -10.5 1.125 C-6.94086771 -0.06137743 -3.701855 -0.02115346 0 0 Z M-3.5 8.125 C-3.5 8.785 -3.5 9.445 -3.5 10.125 C-4.16 10.125 -4.82 10.125 -5.5 10.125 C-5.5 16.395 -5.5 22.665 -5.5 29.125 C-4.84 29.125 -4.18 29.125 -3.5 29.125 C-3.5 29.785 -3.5 30.445 -3.5 31.125 C-1.19 31.125 1.12 31.125 3.5 31.125 C4.66171778 28.80156444 4.62903969 27.42866684 4.6328125 24.84375 C4.63410156 24.00199219 4.63539063 23.16023438 4.63671875 22.29296875 C4.63285156 21.41253906 4.62898438 20.53210937 4.625 19.625 C4.62886719 18.74457031 4.63273437 17.86414062 4.63671875 16.95703125 C4.63542969 16.11527344 4.63414062 15.27351563 4.6328125 14.40625 C4.63168457 13.63345703 4.63055664 12.86066406 4.62939453 12.06445312 C4.62007086 10.04290801 4.62007086 10.04290801 3.5 8.125 C1.19 8.125 -1.12 8.125 -3.5 8.125 Z " fill="#010101" transform="translate(457.5,25.875)"/>
<path d="M0 0 C2.64 0 5.28 0 8 0 C8.33 0.99 8.66 1.98 9 3 C9.99 3.33 10.98 3.66 12 4 C12 4.66 12 5.32 12 6 C12.99 6.33 13.98 6.66 15 7 C15 7.66 15 8.32 15 9 C15.66 9 16.32 9 17 9 C17 18.9 17 28.8 17 39 C14.03 39 11.06 39 8 39 C8 36.03 8 33.06 8 30 C5.36 30 2.72 30 0 30 C0 32.97 0 35.94 0 39 C-2.97 39 -5.94 39 -9 39 C-9 29.1 -9 19.2 -9 9 C-8.34 9 -7.68 9 -7 9 C-6.67 8.01 -6.34 7.02 -6 6 C-5.34 6 -4.68 6 -4 6 C-3.67 5.01 -3.34 4.02 -3 3 C-2.34 3 -1.68 3 -1 3 C-0.67 2.01 -0.34 1.02 0 0 Z M1.375 11 C-0.82559052 14.20085893 -0.18792122 17.17893517 0 21 C2.64 21 5.28 21 8 21 C8.50675587 15.68989705 8.50675587 15.68989705 6.625 11 C4.43789744 9.65409073 3.56210256 9.65409073 1.375 11 Z " fill="#000000" transform="translate(315,26)"/>
<path d="M0 0 C2.64 0 5.28 0 8 0 C8.33 0.99 8.66 1.98 9 3 C9.99 3.33 10.98 3.66 12 4 C12 4.66 12 5.32 12 6 C12.99 6.33 13.98 6.66 15 7 C15 7.66 15 8.32 15 9 C15.66 9 16.32 9 17 9 C17 18.9 17 28.8 17 39 C14.03 39 11.06 39 8 39 C8 36.03 8 33.06 8 30 C5.36 30 2.72 30 0 30 C0 32.97 0 35.94 0 39 C-2.97 39 -5.94 39 -9 39 C-9 29.1 -9 19.2 -9 9 C-8.34 9 -7.68 9 -7 9 C-6.67 8.01 -6.34 7.02 -6 6 C-5.34 6 -4.68 6 -4 6 C-3.67 5.01 -3.34 4.02 -3 3 C-2.34 3 -1.68 3 -1 3 C-0.67 2.01 -0.34 1.02 0 0 Z M1.375 11 C-0.82559052 14.20085893 -0.18792122 17.17893517 0 21 C2.64 21 5.28 21 8 21 C8.50675587 15.68989705 8.50675587 15.68989705 6.625 11 C4.43789744 9.65409073 3.56210256 9.65409073 1.375 11 Z " fill="#000000" transform="translate(140,26)"/>
<path d="M0 0 C3.78364501 2.3757771 6.51423529 5.30266712 9 9 C9.45410156 12.3215332 9.45410156 12.3215332 9.390625 16.05078125 C9.38496521 16.70958786 9.37930542 17.36839447 9.37347412 18.04716492 C9.35121239 20.13637216 9.3010433 22.22381773 9.25 24.3125 C9.22992144 25.73500114 9.21167304 27.15752937 9.1953125 28.58007812 C9.15138359 32.0539508 9.08243096 35.52680325 9 39 C6.36 39 3.72 39 1 39 C1 36.03 1 33.06 1 30 C-1.97 30 -4.94 30 -8 30 C-8 32.97 -8 35.94 -8 39 C-10.97 39 -13.94 39 -17 39 C-17 29.1 -17 19.2 -17 9 C-16.34 9 -15.68 9 -15 9 C-15 8.34 -15 7.68 -15 7 C-13.36395804 5.62926214 -11.69321939 4.29944744 -10 3 C-9.319375 2.13375 -9.319375 2.13375 -8.625 1.25 C-5.82364104 -0.90489151 -3.38895124 -0.40901136 0 0 Z M-5 10 C-5.33 10.99 -5.66 11.98 -6 13 C-6.66 13 -7.32 13 -8 13 C-8 15.64 -8 18.28 -8 21 C-5.03 21 -2.06 21 1 21 C1 18.36 1 15.72 1 13 C0.34 13 -0.32 13 -1 13 C-1.33 12.01 -1.66 11.02 -2 10 C-2.99 10 -3.98 10 -5 10 Z " fill="#000000" transform="translate(246,26)"/>
<path d="M0 0 C8.58 0 17.16 0 26 0 C26 2.64 26 5.28 26 8 C20.39 8 14.78 8 9 8 C9 10.31 9 12.62 9 15 C13.62 15 18.24 15 23 15 C23 17.97 23 20.94 23 24 C18.38 24 13.76 24 9 24 C9 26.31 9 28.62 9 31 C14.61 31 20.22 31 26 31 C26 33.64 26 36.28 26 39 C17.42 39 8.84 39 0 39 C0 26.13 0 13.26 0 0 Z " fill="#010101" transform="translate(337,26)"/>
<path d="M0 0 C0.66 1.32 1.32 2.64 2 4 C4.97 3.34 7.94 2.68 11 2 C11 2.66 11 3.32 11 4 C9.783125 4.433125 8.56625 4.86625 7.3125 5.3125 C3.9685644 6.5776124 0.88207676 7.83844243 -2 10 C-2 10.99 -2 11.98 -2 13 C-3.19100287 14.8332937 -4.53555556 16.48164815 -5.90625 18.18359375 C-7.34389984 20.21773806 -7.34389984 20.21773806 -7 24 C-7.04125 25.27875 -7.0825 26.5575 -7.125 27.875 C-7.11109861 31.59362223 -6.65432761 34.60862841 -5 38 C-3.6753214 38.36621784 -2.33993335 38.69427546 -1 39 C0.45659291 39.82118454 1.89354933 40.67786113 3.3125 41.5625 C8.41360647 44.46904178 12.12911053 44.37446384 17.875 43.625 C18.57625 43.41875 19.2775 43.2125 20 43 C20.495 42.01 20.495 42.01 21 41 C22.75936265 39.93489565 24.5716434 39.02623787 26.40625 38.09765625 C28.33206726 37.00702945 28.33206726 37.00702945 29 34 C29.66 34 30.32 34 31 34 C31 30.7 31 27.4 31 24 C30.34 23.67 29.68 23.34 29 23 C29.495 21.515 29.495 21.515 30 20 C29.67 19.67 29.34 19.34 29 19 C28.71125 18.38125 28.4225 17.7625 28.125 17.125 C27.11306857 14.94569526 27.11306857 14.94569526 25.375 13.4375 C24 12 24 12 24 9 C20.37 7.35 16.74 5.7 13 4 C13 3.34 13 2.68 13 2 C14.216875 2.2475 15.43375 2.495 16.6875 2.75 C18.88447274 3.101245 18.88447274 3.101245 21 3 C22.6825613 1.68678142 24.34997172 0.35386936 26 -1 C30.24645609 -1.07449923 32.220257 -0.67977595 35.4375 2.125 C37.40109741 5.73801923 37.51673305 7.93995462 37 12 C36.46375 12.61875 35.9275 13.2375 35.375 13.875 C33.76282526 15.85491522 33.76282526 15.85491522 34.28125 17.92578125 C34.68664295 19.47000833 35.09702235 21.01293278 35.51171875 22.5546875 C36.2933751 26.46922252 35.73603082 30.11167556 35 34 C34.89042969 34.68449219 34.78085938 35.36898437 34.66796875 36.07421875 C33.30190609 40.01263333 29.44139251 41.95050828 26 44 C17.67015413 47.835494 11.3755056 49.21627095 2.5625 46 C-3.53907778 43.55936889 -7.49825043 40.57945431 -11 35 C-12.75526371 29.73420888 -12.37451371 24.91349649 -10.8125 19.6875 C-10.544375 18.470625 -10.27625 17.25375 -10 16 C-11.27056525 14.31267956 -11.27056525 14.31267956 -13 13 C-14.07617124 9.46400877 -14.3192255 7.72245771 -12.8125 4.3125 C-8.83298391 -0.76481364 -6.46630129 -1.7961948 0 0 Z " fill="#020202" transform="translate(34,25)"/>
<path d="M0 0 C2.64 0 5.28 0 8 0 C8 4.95 8 9.9 8 15 C9.98 14.67 11.96 14.34 14 14 C14.33 9.38 14.66 4.76 15 0 C17.97 0 20.94 0 24 0 C24 4.62 24 9.24 24 14 C23.34 14 22.68 14 22 14 C21.87625 14.61875 21.7525 15.2375 21.625 15.875 C21 18 21 18 19 20 C19.495 20.45375 19.99 20.9075 20.5 21.375 C22 23 22 23 22 25 C22.66 25 23.32 25 24 25 C24 29.62 24 34.24 24 39 C21.03 39 18.06 39 15 39 C14.67 34.38 14.34 29.76 14 25 C12.02 24.67 10.04 24.34 8 24 C8 28.95 8 33.9 8 39 C5.36 39 2.72 39 0 39 C0 26.13 0 13.26 0 0 Z " fill="#000000" transform="translate(369,26)"/>
<path d="M0 0 C19 0 19 0 23 1 C23.33 2.65 23.66 4.3 24 6 C24.66 6 25.32 6 26 6 C26 10.95 26 15.9 26 21 C25.34 21.33 24.68 21.66 24 22 C23.67 22.99 23.34 23.98 23 25 C22.34 25 21.68 25 21 25 C21 25.66 21 26.32 21 27 C17.04 27 13.08 27 9 27 C9 30.96 9 34.92 9 39 C6.03 39 3.06 39 0 39 C0 26.13 0 13.26 0 0 Z M9 8 C9 11.3 9 14.6 9 18 C13.14093698 18.20970559 13.14093698 18.20970559 17 17 C17 14.69 17 12.38 17 10 C16.34 10 15.68 10 15 10 C15 9.34 15 8.68 15 8 C13.02 8 11.04 8 9 8 Z " fill="#010101" transform="translate(100,26)"/>
<path d="M0 0 C8.25 0 16.5 0 25 0 C25 2.64 25 5.28 25 8 C22.36 8 19.72 8 17 8 C17 18.23 17 28.46 17 39 C14.03 39 11.06 39 8 39 C8 28.77 8 18.54 8 8 C5.36 8 2.72 8 0 8 C0 5.36 0 2.72 0 0 Z " fill="#000000" transform="translate(276,26)"/>
<path d="M0 0 C-0.47730838 1.4589426 -0.95691042 2.91713496 -1.4375 4.375 C-1.70433594 5.18710937 -1.97117187 5.99921875 -2.24609375 6.8359375 C-3 9 -3 9 -4 11 C-4.66 11 -5.32 11 -6 11 C-6 12.32 -6 13.64 -6 15 C-8.64 15 -11.28 15 -14 15 C-14.125 9.25 -14.125 9.25 -13 7 C-13.66 7 -14.32 7 -15 7 C-14.67 6.01 -14.34 5.02 -14 4 C-12.68 4 -11.36 4 -10 4 C-9.67 3.01 -9.34 2.02 -9 1 C-5.78578255 -1.29586961 -3.71609706 -1.03224918 0 0 Z " fill="#1E0303" transform="translate(43,44)"/>
<path d="M0 0 C3.0995833 0.0737996 5.27614543 0.39761987 7.69921875 2.4140625 C10.95289508 5.99074302 13.11438498 8.96706073 13 14 C11.875 15.875 11.875 15.875 10 17 C7.3125 17.1875 7.3125 17.1875 5 17 C4.54625 15.88625 4.0925 14.7725 3.625 13.625 C2.27534014 10.03800992 2.27534014 10.03800992 0 8 C-0.26991906 5.31160615 -0.08737357 2.70858064 0 0 Z " fill="#020202" transform="translate(50,44)"/>
<path d="M0 0 C0.99 0.33 1.98 0.66 3 1 C2.60404157 2.48484412 2.18249294 3.9628831 1.75 5.4375 C1.51796875 6.26121094 1.2859375 7.08492187 1.046875 7.93359375 C0 10 0 10 -2.109375 10.78515625 C-2.73328125 10.85605469 -3.3571875 10.92695312 -4 11 C-4.36630156 7.06225823 -4.30233203 5.43460229 -2 2.125 C-1.34 1.42375 -0.68 0.7225 0 0 Z " fill="#88161F" transform="translate(40,43)"/>
<path d="M0 0 C0.721875 0.185625 1.44375 0.37125 2.1875 0.5625 C4.93549147 1.15990482 4.93549147 1.15990482 7.375 0.5 C10.76456 -0.14563048 13.6256478 0.40452608 17 1 C16.01 2.485 16.01 2.485 15 4 C12.28515625 4.36328125 12.28515625 4.36328125 9.0625 4.3125 C8.00160156 4.30863281 6.94070312 4.30476563 5.84765625 4.30078125 C3 4 3 4 0 2 C0 1.34 0 0.68 0 0 Z " fill="#030303" transform="translate(37,64)"/>
<path d="M0 0 C1.37478516 0.01740234 1.37478516 0.01740234 2.77734375 0.03515625 C3.69644531 0.04417969 4.61554687 0.05320313 5.5625 0.0625 C6.27277344 0.07410156 6.98304687 0.08570313 7.71484375 0.09765625 C7.71484375 1.08765625 7.71484375 2.07765625 7.71484375 3.09765625 C5.52771485 4.42555594 4.23763919 5.14518311 1.65234375 4.91015625 C-0.54270907 3.98965023 -1.73381906 2.88169402 -3.28515625 1.09765625 C-2.28515625 0.09765625 -2.28515625 0.09765625 0 0 Z " fill="#020202" transform="translate(43.28515625,57.90234375)"/>
<path d="M0 0 C0.99 0.33 1.98 0.66 3 1 C2.67 2.98 2.34 4.96 2 7 C0.35 7 -1.3 7 -3 7 C-2.25 2.25 -2.25 2.25 0 0 Z " fill="#AC1B2B" transform="translate(32,52)"/>
<path d="M0 0 C0.93065133 2.60582371 1.14917407 3.64198224 0.0625 6.25 C-0.4634375 7.11625 -0.4634375 7.11625 -1 8 C-1.66 8 -2.32 8 -3 8 C-3.1875 5.125 -3.1875 5.125 -3 2 C-2.01 1.34 -1.02 0.68 0 0 Z " fill="#C3182C" transform="translate(39,46)"/>
<path d="M0 0 C0.33 0.66 0.66 1.32 1 2 C1.99 1.67 2.98 1.34 4 1 C4 1.66 4 2.32 4 3 C3.34 3 2.68 3 2 3 C2 4.32 2 5.64 2 7 C1.01 6.67 0.02 6.34 -1 6 C-0.67 4.02 -0.34 2.04 0 0 Z " fill="#57060F" transform="translate(35,52)"/>
<path d="M0 0 C0.99 0 1.98 0 3 0 C3 1.32 3 2.64 3 4 C2.01 3.67 1.02 3.34 0 3 C0 2.01 0 1.02 0 0 Z " fill="#030303" transform="translate(51,81)"/>
<path d="M0 0 C2 1 2 1 2 1 Z " fill="#000000" transform="translate(61,60)"/>
<path d="" fill="#000000" transform="translate(0,0)"/>
<path d="" fill="#000000" transform="translate(0,0)"/>
<path d="" fill="#000000" transform="translate(0,0)"/>
<path d="" fill="#000000" transform="translate(0,0)"/>
<path d="" fill="#000000" transform="translate(0,0)"/>
<path d="" fill="#000000" transform="translate(0,0)"/>
<path d="" fill="#000000" transform="translate(0,0)"/>
<path d="" fill="#000000" transform="translate(0,0)"/>
<path d="" fill="#000000" transform="translate(0,0)"/>
<path d="" fill="#000000" transform="translate(0,0)"/>
<path d="" fill="#000000" transform="translate(0,0)"/>
<path d="" fill="#000000" transform="translate(0,0)"/>
<path d="" fill="#000000" transform="translate(0,0)"/>
<path d="" fill="#000000" transform="translate(0,0)"/>
<path d="" fill="#000000" transform="translate(0,0)"/>
<path d="" fill="#000000" transform="translate(0,0)"/>
<path d="" fill="#000000" transform="translate(0,0)"/>
<path d="" fill="#000000" transform="translate(0,0)"/>
<path d="" fill="#000000" transform="translate(0,0)"/>
</svg>
