<?xml version="1.0" standalone="no"?>
<!DOCTYPE svg PUBLIC "-//W3C//DTD SVG 20010904//EN"
 "http://www.w3.org/TR/2001/REC-SVG-20010904/DTD/svg10.dtd">
<svg version="1.0" xmlns="http://www.w3.org/2000/svg"
 width="512.000000pt" height="512.000000pt" viewBox="0 0 512.000000 512.000000"
 preserveAspectRatio="xMidYMid meet">

<g transform="translate(0.000000,512.000000) scale(0.100000,-0.100000)"
fill="#000000" stroke="none">
<path d="M4430 4835 c-136 -39 -248 -157 -279 -297 -8 -33 -7 -46 4 -58 24
-27 52 -101 80 -209 29 -117 36 -126 135 -174 61 -30 72 -32 170 -32 92 0 112
3 160 26 81 38 154 109 192 186 27 55 33 80 36 153 5 103 -12 166 -66 249 -88
134 -273 200 -432 156z"/>
<path d="M3845 4456 c-41 -18 -82 -67 -97 -118 -11 -38 -6 -63 81 -417 52
-207 102 -393 112 -413 26 -51 91 -88 155 -88 27 0 145 16 263 35 118 19 216
33 218 32 6 -6 -464 -198 -498 -203 -97 -16 -223 64 -250 158 -7 23 -14 45
-15 47 -2 2 -15 -11 -30 -28 -25 -30 -27 -39 -28 -134 -1 -91 -4 -108 -29
-155 -15 -29 -43 -70 -62 -91 l-35 -39 49 -21 c103 -44 156 -26 271 93 46 47
85 85 86 83 1 -1 -10 -196 -25 -433 l-28 -431 -228 -319 c-126 -175 -237 -339
-247 -364 -18 -46 -158 -1091 -158 -1182 0 -94 85 -187 182 -202 98 -15 213
58 237 151 5 21 40 272 77 557 l67 520 259 360 c188 263 264 360 276 358 9 -2
33 -8 53 -13 l36 -9 -109 -343 c-86 -267 -109 -351 -105 -382 4 -42 360 -1023
397 -1095 25 -49 92 -95 153 -104 133 -20 260 101 244 232 -3 26 -83 255 -177
510 -93 255 -170 470 -170 477 0 8 60 200 134 427 l134 413 21 580 c26 705 26
777 5 839 -31 91 -140 184 -237 201 -21 4 -144 4 -273 0 l-235 -7 7 -32 c3
-17 8 -33 10 -35 2 -2 42 -7 90 -12 47 -4 87 -9 90 -11 2 -2 -60 -14 -138 -26
-78 -12 -143 -20 -146 -18 -2 3 -36 133 -76 290 -63 253 -75 289 -101 316 -17
18 -42 38 -57 46 -34 17 -113 18 -153 0z"/>
<path d="M411 4330 c-103 -37 -183 -110 -230 -209 -23 -50 -26 -68 -26 -166 0
-102 2 -114 30 -169 79 -157 251 -246 417 -217 128 22 235 101 293 217 28 55
30 67 30 169 0 98 -3 116 -26 166 -85 182 -304 275 -488 209z"/>
<path d="M2285 4226 c-17 -7 -116 -83 -220 -167 -105 -85 -226 -184 -271 -220
l-80 -65 -315 47 c-172 26 -321 48 -330 48 -11 1 -18 -11 -23 -37 -10 -65 -73
-177 -134 -239 -127 -129 -311 -182 -495 -144 -55 12 -58 12 -76 -10 -27 -34
-341 -832 -341 -868 0 -60 44 -136 95 -163 59 -32 78 -30 519 68 236 52 445
102 464 111 43 21 88 82 97 132 15 92 -50 190 -140 209 -41 9 -75 4 -292 -44
-135 -30 -248 -53 -249 -51 -4 4 72 197 81 205 3 3 2 -8 -1 -25 l-6 -31 38 8
c415 93 417 93 519 46 183 -84 240 -312 119 -478 -46 -64 -117 -103 -236 -130
-54 -12 -98 -25 -98 -28 0 -4 32 -49 70 -100 l70 -93 0 -435 0 -434 85 -447
c87 -456 100 -510 137 -557 30 -37 113 -74 168 -74 77 1 160 52 196 121 31 61
27 94 -60 550 l-86 446 0 445 0 444 135 102 c100 77 228 155 502 312 332 189
375 211 452 229 47 11 255 58 461 105 476 108 475 108 525 160 135 139 41 365
-151 366 -29 0 -264 -49 -565 -118 l-514 -118 -294 -167 c-281 -160 -296 -167
-312 -150 -21 22 -349 457 -346 459 1 1 90 -11 197 -28 174 -26 200 -28 239
-16 32 10 125 80 355 268 172 140 320 264 329 276 9 12 22 42 29 67 37 138
-116 270 -247 213z"/>
<path d="M3045 3676 c-36 -15 -93 -78 -76 -84 12 -4 238 46 260 58 20 11 -62
40 -112 40 -23 -1 -56 -7 -72 -14z"/>
</g>
</svg>
