<?xml version="1.0" standalone="no"?>
<!DOCTYPE svg PUBLIC "-//W3C//DTD SVG 20010904//EN"
 "http://www.w3.org/TR/2001/REC-SVG-20010904/DTD/svg10.dtd">
<svg version="1.0" xmlns="http://www.w3.org/2000/svg"
 width="512.000000pt" height="512.000000pt" viewBox="0 0 512.000000 512.000000"
 preserveAspectRatio="xMidYMid meet">

<g transform="translate(0.000000,512.000000) scale(0.100000,-0.100000)"
fill="#000000" stroke="none">
<path d="M2441 5104 c-300 -81 -450 -407 -314 -684 101 -207 334 -313 558
-255 181 48 329 213 354 397 47 343 -270 630 -598 542z"/>
<path d="M2025 4002 c-74 -25 -129 -61 -230 -147 -323 -274 -535 -696 -610
-1210 -8 -60 -17 -122 -20 -136 l-4 -26 227 -6 c204 -5 323 -18 383 -42 14 -5
18 14 33 138 30 254 103 567 155 662 15 29 16 18 21 -227 l5 -256 56 66 c147
178 389 512 389 539 0 7 -13 39 -29 71 -43 85 -144 341 -187 475 l-38 117 -51
0 c-27 -1 -73 -8 -100 -18z"/>
<path d="M2356 3888 c59 -172 154 -399 165 -392 19 11 178 304 245 451 l33 73
-244 0 -244 0 45 -132z"/>
<path d="M2924 3984 c-139 -338 -417 -789 -710 -1156 -63 -78 -114 -145 -114
-149 0 -9 144 -28 313 -41 165 -12 350 -2 585 33 73 10 135 19 138 19 2 0 4
129 4 288 1 327 3 332 65 140 44 -135 89 -357 111 -545 15 -124 19 -143 33
-138 60 24 179 37 383 42 l227 6 -4 26 c-3 14 -10 62 -16 106 -46 341 -167
680 -327 920 -66 98 -203 257 -300 347 -35 32 -95 73 -137 94 -63 31 -89 38
-155 42 l-80 5 -16 -39z"/>
<path d="M1977 2543 c-10 -10 -34 -69 -54 -131 l-35 -114 36 -77 c53 -113 46
-203 -21 -273 l-25 -27 33 -5 c67 -12 174 -26 201 -26 25 0 28 6 59 98 43 132
125 318 187 427 l51 90 -67 8 c-121 13 -307 38 -327 43 -11 3 -28 -3 -38 -13z"/>
<path d="M2985 2540 c-66 -10 -155 -22 -197 -27 l-77 -8 51 -90 c64 -111 145
-297 188 -431 l33 -100 96 12 c53 8 111 16 130 19 l33 6 -25 27 c-67 70 -74
160 -21 273 l37 78 -42 130 c-37 118 -44 131 -64 130 -12 -1 -76 -10 -142 -19z"/>
<path d="M2518 2433 c-66 -110 -97 -168 -137 -261 -38 -86 -111 -284 -111
-301 0 -4 66 -15 147 -25 142 -18 151 -18 290 0 79 10 143 21 143 25 0 19 -77
226 -119 319 -53 117 -152 292 -168 297 -6 2 -26 -22 -45 -54z"/>
<path d="M1445 2381 c15 -80 136 -362 174 -405 25 -28 87 -56 125 -56 96 0
176 81 176 179 0 24 -85 226 -105 248 -17 21 -163 53 -274 61 l-102 8 6 -35z"/>
<path d="M3577 2408 c-107 -8 -255 -41 -273 -61 -22 -25 -104 -225 -104 -256
0 -65 51 -137 113 -160 70 -27 160 3 203 66 45 67 169 378 162 406 -2 9 -30
10 -101 5z"/>
<path d="M1865 1838 c-2 -13 -38 -315 -80 -673 -41 -357 -78 -668 -81 -691
l-6 -41 164 -6 c180 -7 353 -27 496 -58 52 -11 97 -18 100 -14 7 7 83 1407 77
1413 -6 6 -278 43 -282 38 -3 -2 -15 -54 -27 -115 -12 -61 -25 -113 -29 -117
-3 -4 -31 -3 -62 1 -65 8 -65 5 -35 150 11 54 19 100 17 101 -3 4 -213 34
-234 34 -7 0 -15 -10 -18 -22z"/>
<path d="M3100 1843 c-52 -8 -96 -16 -98 -17 -1 -2 7 -47 18 -101 30 -145 30
-142 -35 -150 -31 -4 -59 -5 -62 -1 -4 4 -17 56 -29 117 -12 61 -24 113 -26
115 -3 2 -74 -6 -160 -17 l-155 -21 4 -47 c2 -25 17 -316 33 -646 17 -330 33
-629 36 -664 l6 -63 31 7 c205 44 462 74 630 75 53 0 97 3 97 8 1 4 -36 325
-82 715 -70 600 -84 707 -98 706 -8 -1 -58 -8 -110 -16z"/>
<path d="M1814 361 c-2 -2 -4 -38 -4 -80 0 -59 6 -88 24 -127 41 -87 143 -154
236 -154 146 0 270 122 270 266 0 49 8 46 -161 69 -121 16 -357 33 -365 26z"/>
<path d="M3150 359 c-120 -8 -231 -22 -337 -40 -62 -11 -63 -12 -63 -43 0 -96
59 -196 142 -242 46 -25 63 -29 128 -29 89 1 136 21 194 85 46 51 64 91 67
150 4 67 0 130 -8 129 -5 -1 -60 -5 -123 -10z"/>
</g>
</svg>
