<?xml version="1.0" standalone="no"?>
<!DOCTYPE svg PUBLIC "-//W3C//DTD SVG 20010904//EN"
 "http://www.w3.org/TR/2001/REC-SVG-20010904/DTD/svg10.dtd">
<svg version="1.0" xmlns="http://www.w3.org/2000/svg"
 width="512.000000pt" height="512.000000pt" viewBox="0 0 512.000000 512.000000"
 preserveAspectRatio="xMidYMid meet">

<g transform="translate(0.000000,512.000000) scale(0.100000,-0.100000)"
fill="#000000" stroke="none">
<path d="M4060 4458 c-427 -289 -459 -312 -800 -597 -195 -163 -363 -303 -373
-311 -11 -9 -25 -48 -37 -100 -22 -100 -73 -263 -106 -337 l-23 -53 53 -35
c104 -69 185 -173 221 -283 27 -83 18 -240 -18 -307 -34 -65 -51 -85 -112
-130 -60 -45 -109 -68 -325 -150 -91 -34 -195 -76 -231 -93 l-67 -30 -13 -73
c-11 -58 -13 -178 -11 -544 2 -258 7 -558 10 -665 l7 -195 60 -9 c33 -5 168
-9 300 -9 208 -1 254 2 344 21 57 12 106 24 109 27 4 3 -21 288 -54 633 l-60
627 105 396 106 396 427 439 427 439 492 230 c270 127 494 236 496 243 15 38
-136 370 -238 521 -67 102 -204 251 -229 251 -8 -1 -215 -136 -460 -302z"/>
<path d="M3368 4674 l-27 -14 28 -45 c16 -25 44 -81 62 -125 18 -44 36 -80 41
-80 5 0 27 17 50 38 35 33 41 46 45 88 6 62 -14 106 -60 134 -38 23 -101 25
-139 4z"/>
<path d="M4793 4650 c-29 -17 -53 -32 -53 -35 0 -2 22 -37 49 -77 27 -40 75
-121 106 -180 31 -60 60 -108 63 -108 16 0 108 78 129 108 25 38 38 107 29
156 -8 43 -41 91 -89 130 -34 27 -47 31 -110 34 -65 3 -77 0 -124 -28z"/>
<path d="M2876 4461 l-298 -207 -197 0 c-267 0 -460 -32 -616 -103 l-65 -30 0
-58 c-1 -247 -182 -462 -424 -504 -69 -12 -175 -7 -220 11 -22 8 -26 5 -39
-28 -30 -76 -41 -185 -41 -392 0 -207 16 -431 36 -505 21 -81 123 -155 213
-155 58 0 98 20 346 176 l250 157 -6 86 c-15 210 -31 269 -90 339 l-26 31
-126 -80 c-70 -45 -133 -83 -140 -86 -10 -4 -13 15 -13 85 0 106 5 122 34 122
21 0 22 -3 18 -60 -2 -33 0 -60 4 -60 5 0 58 32 119 70 l110 69 31 -30 c28
-27 35 -29 54 -19 30 16 123 14 157 -3 67 -36 103 -97 103 -175 0 -70 -32
-119 -113 -171 l-67 -44 0 -51 0 -51 -61 -38 c-34 -21 -60 -40 -57 -42 10 -10
502 -156 513 -152 15 6 315 456 349 524 14 28 39 85 55 125 32 81 87 285 79
293 -3 3 -65 19 -139 35 -129 29 -138 33 -232 96 -54 37 -96 68 -95 70 8 7
252 35 384 43 l141 8 327 252 c287 222 326 255 320 274 -18 61 -80 219 -105
268 -15 31 -44 70 -64 87 -67 59 -72 57 -409 -177z"/>
<path d="M1085 4507 c-234 -60 -388 -293 -346 -522 34 -188 182 -339 369 -375
226 -45 453 93 522 317 70 227 -54 479 -278 563 -70 27 -197 35 -267 17z"/>
<path d="M590 3932 c-72 -27 -103 -47 -152 -100 -73 -78 -104 -152 -138 -334
-49 -257 -135 -374 -261 -354 -47 8 -49 -3 -9 -38 69 -57 192 -60 297 -7 128
64 177 147 242 408 50 199 79 259 137 288 l41 20 -23 50 c-13 28 -24 58 -24
68 0 22 -48 22 -110 -1z"/>
<path d="M1830 3251 c-28 -8 -28 -13 -1 -96 11 -33 23 -93 28 -133 l8 -72 52
35 c62 41 83 77 83 139 0 36 -6 52 -31 80 -25 29 -86 59 -109 55 -3 -1 -16 -4
-30 -8z"/>
<path d="M2725 2904 c53 -199 15 -358 -113 -475 -56 -51 -181 -117 -264 -139
-45 -12 -47 -14 -58 -62 -14 -56 -11 -64 20 -48 12 7 94 38 182 71 224 83 300
122 353 181 50 56 60 89 59 193 0 53 -6 84 -26 127 -26 56 -104 150 -141 170
-18 9 -19 8 -12 -18z"/>
<path d="M2494 2703 c-80 -119 -125 -197 -137 -236 -10 -33 -16 -61 -13 -64
10 -10 153 65 193 100 22 20 52 60 69 89 27 49 29 61 29 153 0 163 -3 162
-141 -42z"/>
<path d="M2075 2346 c-322 -62 -574 -162 -758 -300 -71 -53 -137 -118 -137
-134 0 -4 19 -19 42 -34 l41 -26 19 23 c37 48 184 148 292 200 171 82 316 126
554 170 68 13 126 25 128 28 3 3 2 26 -1 51 -9 55 -5 55 -180 22z"/>
<path d="M2039 2035 c-110 -74 -223 -175 -291 -263 l-48 -60 42 -31 43 -32 34
43 c62 78 187 192 267 245 132 87 120 72 95 121 -12 23 -27 42 -34 42 -6 0
-55 -29 -108 -65z"/>
<path d="M2608 483 c-82 -2 -148 -6 -148 -9 0 -18 48 -68 87 -91 99 -58 238
-20 289 80 l15 27 -48 -2 c-27 -1 -114 -4 -195 -5z"/>
</g>
</svg>
